<mxfile host="app.diagrams.net" modified="2023-05-30T02:47:08.329Z" agent="Mozilla/5.0 (Windows NT 10.0; Win64; x64) AppleWebKit/537.36 (KHTML, like Gecko) Chrome/113.0.0.0 Safari/537.36 Edg/113.0.1774.57" version="21.3.3" etag="se9_8NWCw3p6UQqCaGvr" type="github">
  <diagram name="第 1 页" id="Jq8OHCJpmJ6k76olwIwa">
    <mxGraphModel>
      <root>
        <mxCell id="0" />
        <mxCell id="1" parent="0" />
      </root>
    </mxGraphModel>
  </diagram>
</mxfile>
